<mxfile host="app.diagrams.net" modified="2023-12-06T15:20:01.805Z" agent="Mozilla/5.0 (X11; Linux x86_64; rv:109.0) Gecko/20100101 Firefox/119.0" version="22.1.6" etag="xi0dT9n_8umi79b-sGmV" type="github">
  <diagram name="Page-1" id="R3YBm_2TzMzAC8AD6UHV">
    <mxGraphModel>
      <root>
        <mxCell id="0" />
        <mxCell id="1" parent="0" />
      </root>
    </mxGraphModel>
  </diagram>
</mxfile>
